<!--?xml version="1.0" standalone="no"?-->
              <svg id="sw-js-blob-svg" viewBox="0 0 100 100" xmlns="http://www.w3.org/2000/svg" version="1.1">
                    <defs> 
                        <linearGradient id="sw-gradient" x1="0" x2="1" y1="1" y2="0">
                            <stop id="stop1" stop-color="rgba(59.59, 137.302, 251.272, 1)" offset="0%"></stop>
                            <stop id="stop2" stop-color="rgba(77, 119, 255, 1)" offset="100%"></stop>
                        </linearGradient>
                    </defs>
                <path fill="url(#sw-gradient)" d="M21.6,-36.5C28.6,-33.3,35.3,-28.8,39.1,-22.5C42.8,-16.2,43.7,-8.1,42.8,-0.5C41.9,7.1,39.3,14.1,35,19.7C30.8,25.2,25,29.2,18.9,33.3C12.8,37.4,6.4,41.6,-0.8,43C-8.1,44.5,-16.2,43.2,-23.2,39.6C-30.2,36.1,-36.2,30.2,-38.7,23.2C-41.2,16.2,-40.2,8.1,-38.8,0.9C-37.3,-6.4,-35.2,-12.8,-32.5,-19.4C-29.7,-25.9,-26.3,-32.7,-20.7,-36.7C-15.2,-40.7,-7.6,-42,-0.2,-41.7C7.3,-41.4,14.5,-39.6,21.6,-36.5Z" width="100%" height="100%" transform="translate(50 50)" stroke-width="0" style="transition: all 0.3s ease 0s;"></path>
              </svg>