<svg id="visual" viewBox="0 0 1021 540" width="1021" height="540" xmlns="http://www.w3.org/2000/svg" xmlns:xlink="http://www.w3.org/1999/xlink" version="1.1"><rect x="0" y="0" width="1021" height="540" fill="#ebffe7"></rect><defs><linearGradient id="grad1_0" x1="47.1%" y1="0%" x2="100%" y2="100%"><stop offset="12.185185185185183%" stop-color="#ebffe7" stop-opacity="1"></stop><stop offset="87.81481481481481%" stop-color="#ebffe7" stop-opacity="1"></stop></linearGradient></defs><defs><linearGradient id="grad2_0" x1="0%" y1="0%" x2="52.9%" y2="100%"><stop offset="12.185185185185183%" stop-color="#ebffe7" stop-opacity="1"></stop><stop offset="87.81481481481481%" stop-color="#ebffe7" stop-opacity="1"></stop></linearGradient></defs><g transform="translate(1021, 0)"><path d="M0 297C-51.2 288.5 -102.5 280 -148 256.3C-193.5 232.7 -233.3 193.8 -257.2 148.5C-281.1 103.2 -289 51.6 -297 0L0 0Z" fill="#032783"></path></g><g transform="translate(0, 540)"><path d="M0 -297C52.2 -289.4 104.4 -281.8 148.5 -257.2C192.6 -232.7 228.6 -191.2 252 -145.5C275.4 -99.8 286.2 -49.9 297 0L0 0Z" fill="#032783"></path></g></svg>